<svg xmlns="http://www.w3.org/2000/svg" width="52" height="52" viewBox="0 0 52 52" fill="none">
<rect x="11.8579" y="1.5051" width="40" height="40" rx="2" transform="rotate(15 11.8579 1.5051)" fill="url(#paint0_radial_5005_25)"/>
<rect x="36.6438" y="13.3228" width="8" height="8" rx="0.5" transform="rotate(15 36.6438 13.3228)" fill="white"/>
<path d="M14.7466 36.0199L14.3819 37.3808L9.38276 36.0413L9.74742 34.6804L14.7466 36.0199ZM12.5295 26.2122L9.86147 36.1696L8.14493 35.7096L10.813 25.7523L12.5295 26.2122ZM20.2451 37.0827L21.7605 31.427L23.4155 31.8705L21.4328 39.2701L19.8735 38.8523L20.2451 37.0827ZM20.8899 35.6063L21.4475 35.741C21.3143 36.238 21.1368 36.6815 20.915 37.0717C20.6944 37.4572 20.4286 37.7745 20.1176 38.0234C19.8078 38.2678 19.4519 38.429 19.0498 38.507C18.649 38.5804 18.2001 38.5505 17.7032 38.4173C17.343 38.3208 17.0265 38.1798 16.7537 37.9943C16.4809 37.8088 16.2644 37.5774 16.1042 37.2999C15.9485 37.0236 15.8584 36.6941 15.834 36.3112C15.8095 35.9284 15.8626 35.4931 15.9933 35.0053L17.2742 30.2249L18.9224 30.6665L17.6378 35.4606C17.5658 35.7296 17.5372 35.9638 17.5522 36.1633C17.5683 36.3582 17.6165 36.525 17.6966 36.6637C17.7767 36.8025 17.8836 36.9142 18.0173 36.9989C18.1509 37.0836 18.2998 37.1479 18.464 37.1919C18.9336 37.3177 19.3273 37.3255 19.6452 37.2152C19.9688 37.1015 20.2298 36.9027 20.428 36.6187C20.6309 36.3358 20.7848 35.9984 20.8899 35.6063ZM27.6913 39.3565L28.6368 35.8276C28.7077 35.5632 28.7209 35.3224 28.6765 35.1053C28.632 34.8881 28.5258 34.7009 28.3579 34.5435C28.1945 34.3873 27.9669 34.2701 27.6751 34.1919C27.4061 34.1199 27.1614 34.1031 26.9409 34.1418C26.7204 34.1805 26.5347 34.2626 26.3838 34.3883C26.2328 34.514 26.1311 34.6749 26.0785 34.8709L24.4372 34.4311C24.5154 34.1394 24.6618 33.8756 24.8764 33.6399C25.0911 33.4043 25.3616 33.2153 25.688 33.0731C26.0144 32.9309 26.381 32.8483 26.7879 32.8254C27.1947 32.8025 27.6307 32.8533 28.0957 32.9779C28.6519 33.127 29.1193 33.3524 29.4978 33.6541C29.8808 33.9571 30.1447 34.3308 30.2895 34.7752C30.4401 35.2162 30.4397 35.7194 30.2882 36.2848L29.4068 39.5742C29.3164 39.9116 29.2579 40.2209 29.2314 40.5021C29.2107 40.78 29.2197 41.0292 29.2584 41.2497L29.229 41.3591L27.5398 40.9065C27.51 40.7079 27.5089 40.4657 27.5366 40.1799C27.5701 39.8908 27.6217 39.6163 27.6913 39.3565ZM28.7388 36.4047L28.4794 37.4273L27.2963 37.1137L27.5557 36.0911L28.7388 36.4047Z" fill="white"/>
<defs>
<radialGradient id="paint0_radial_5005_25" cx="0" cy="0" r="1" gradientUnits="userSpaceOnUse" gradientTransform="translate(10.8579 41.5051) rotate(-45) scale(73.5391)">
<stop stop-color="#5071EA"/>
<stop offset="0.9999" stop-color="#00239F"/>
</radialGradient>
</defs>
</svg>